# xmcd CD database file
#
# Track frame offsets:
#	150
#	15763
#	34111
#	55079
#	73794
#	91358
#	112672
#	133920
#	149699
#	164715
#	181295
#	202851
#	222483
#	241072
#
# Disc length: 3437 seconds
#
# Revision: 2
# Processed by: cddbd v1.5.2PL0 Copyright (c) Steve Scherf et al.
# Submitted via: CDex 1.51
#
DISCID=c30d6b0e
DTITLE=Tom Gaebel - Goodlife
DYEAR=2007
DGENRE=Swing
TTITLE0=It's A Good Life
TTITLE1=Never Ever
TTITLE2=Finally
TTITLE3=My Song To You (Ein trauriger Fall)
TTITLE4=In The City
TTITLE5=Dancing Senorita
TTITLE6=Catch Me If You Can
TTITLE7=Such A Happy Day (Saludos Amigos)
TTITLE8=If There Wasn't You
TTITLE9=Still I'm In Love With You
TTITLE10=Spring Time
TTITLE11=One Day I'll Flay Away
TTITLE12=Funny My Love
TTITLE13=To Be With You
EXTD=YEAR: 2007
EXTT0=
EXTT1=
EXTT2=
EXTT3=
EXTT4=
EXTT5=
EXTT6=
EXTT7=
EXTT8=
EXTT9=
EXTT10=
EXTT11=
EXTT12=
EXTT13=
PLAYORDER=
